<svg id="Layer_1" data-name="Layer 1" xmlns="http://www.w3.org/2000/svg" viewBox="0 0 2048 2048"><defs><style>.cls-1{fill:#1572b6;}.cls-1,.cls-2,.cls-3,.cls-4{fill-rule:evenodd;}.cls-2{fill:#35a8db;}.cls-3{fill:#e9e9e8;}.cls-4{fill:#fffffe;}.cls-5{fill:none;}</style></defs><g id="Layer_1-2" data-name="Layer_1"><g id="_337846024" data-name=" 337846024"><polygon id="_337847128" data-name=" 337847128" class="cls-1" points="1863.92 1828.17 2045.62 23.67 2048 0 2021.23 0 26.77 0 0 0 2.38 23.67 183.89 1828.47 185.4 1843.52 201.75 1847.53 1016.26 2048 1029.33 2048 1846.05 1847.24 1862.4 1843.23 1863.92 1828.17"/><polygon id="_337847104" data-name=" 337847104" class="cls-2" points="1890.16 128 1024 128 1024 1916.48 1727.48 1743.56 1890.16 128"/><polygon id="_337846984" data-name=" 337846984" class="cls-3" points="1023.04 608.48 412.12 834.05 432.38 1057.37 1023.04 833.48 1651.34 595.33 1677.38 366.87 1023.04 608.48"/><polygon id="_337846144" data-name=" 337846144" class="cls-3" points="1023.04 366.88 1027.57 366.88 1032.72 366.88 1037.87 366.88 1043.03 366.88 1048.18 366.88 1053.34 366.88 1058.5 366.88 1063.66 366.88 1068.82 366.88 1073.98 366.88 1079.14 366.88 1084.29 366.88 1089.45 366.88 1094.61 366.88 1099.77 366.88 1104.93 366.88 1110.07 366.88 1115.23 366.88 1120.39 366.88 1125.55 366.88 1130.71 366.88 1135.86 366.88 1141.02 366.88 1146.18 366.88 1151.34 366.88 1156.5 366.88 1161.66 366.88 1166.8 366.88 1171.96 366.88 1177.12 366.88 1182.28 366.88 1187.43 366.88 1192.59 366.88 1197.75 366.88 1202.91 366.88 1208.07 366.88 1213.23 366.88 1218.38 366.88 1223.54 366.88 1228.7 366.88 1233.86 366.88 1239.02 366.88 1244.16 366.88 1249.32 366.88 1254.48 366.88 1259.64 366.88 1264.8 366.88 1269.95 366.88 1275.11 366.88 1280.27 366.88 1285.43 366.88 1290.59 366.88 1295.75 366.88 1300.91 366.88 1306.06 366.88 1311.21 366.88 1316.37 366.88 1321.53 366.88 1326.68 366.88 1331.84 366.88 1337 366.88 1342.16 366.88 1347.32 366.88 1352.48 366.88 1357.63 366.88 1362.79 366.88 1367.95 366.88 1373.1 366.88 1378.25 366.88 1383.41 366.88 1388.57 366.88 1393.73 366.88 1398.89 366.88 1404.05 366.88 1409.2 366.88 1414.36 366.88 1419.52 366.88 1424.68 366.88 1429.84 366.88 1435 366.88 1440.15 366.88 1445.3 366.88 1450.46 366.88 1455.62 366.88 1460.77 366.88 1465.93 366.88 1471.09 366.88 1476.25 366.88 1481.41 366.88 1486.57 366.88 1491.72 366.88 1496.88 366.88 1502.04 366.88 1507.18 366.88 1512.34 366.88 1517.5 366.88 1522.66 366.88 1527.82 366.88 1532.98 366.88 1538.14 366.88 1543.3 366.88 1548.45 366.88 1553.61 366.88 1558.77 366.88 1563.93 366.88 1569.09 366.88 1574.25 366.88 1579.39 366.88 1584.55 366.88 1589.71 366.88 1594.87 366.88 1600.02 366.88 1605.18 366.88 1610.34 366.88 1615.5 366.88 1620.66 366.88 1625.82 366.88 1630.97 366.88 1636.13 366.88 1641.29 366.88 1646.45 366.88 1651.59 366.88 1656.75 366.88 1661.91 366.88 1667.07 366.88 1672.23 366.88 1677.38 366.88 1672.23 412.1 1667.07 457.32 1661.91 502.53 1656.75 547.76 1651.59 592.98 1651.34 595.33 1651.34 595.33 1646.45 595.33 1641.29 595.33 1636.13 595.33 1630.97 595.33 1625.82 595.33 1620.66 595.33 1615.5 595.33 1610.34 595.33 1605.18 595.33 1600.02 595.33 1594.87 595.33 1589.71 595.33 1584.55 595.33 1579.39 595.33 1574.25 595.33 1569.09 595.33 1563.93 595.33 1558.77 595.33 1553.61 595.33 1548.45 595.33 1543.3 595.33 1538.14 595.33 1532.98 595.33 1527.82 595.33 1522.66 595.33 1517.5 595.33 1512.34 595.33 1507.18 595.33 1502.04 595.33 1496.88 595.33 1491.72 595.33 1486.57 595.33 1481.41 595.33 1476.25 595.33 1471.09 595.33 1465.93 595.33 1460.77 595.33 1455.62 595.33 1450.46 595.33 1445.3 595.33 1440.15 595.33 1435 595.33 1429.84 595.33 1424.68 595.33 1419.52 595.33 1414.36 595.33 1409.2 595.33 1404.05 595.33 1398.89 595.33 1393.73 595.33 1388.57 595.33 1383.41 595.33 1378.25 595.33 1373.1 595.33 1367.95 595.33 1362.79 595.33 1357.63 595.33 1352.48 595.33 1347.32 595.33 1342.16 595.33 1337 595.33 1331.84 595.33 1326.68 595.33 1321.53 595.33 1316.37 595.33 1311.21 595.33 1306.06 595.33 1300.91 595.33 1295.75 595.33 1290.59 595.33 1285.43 595.33 1280.27 595.33 1275.11 595.33 1269.95 595.33 1264.8 595.33 1259.64 595.33 1254.48 595.33 1249.32 595.33 1244.16 595.33 1239.02 595.33 1233.86 595.33 1228.7 595.33 1223.54 595.33 1218.38 595.33 1213.23 595.33 1208.07 595.33 1202.91 595.33 1197.75 595.33 1192.59 595.33 1187.43 595.33 1182.28 595.33 1177.12 595.33 1171.96 595.33 1166.8 595.33 1161.66 595.33 1156.5 595.33 1151.34 595.33 1146.18 595.33 1141.02 595.33 1135.86 595.33 1130.71 595.33 1125.55 595.33 1120.39 595.33 1115.23 595.33 1110.07 595.33 1104.93 595.33 1099.77 595.33 1094.61 595.33 1089.45 595.33 1084.29 595.33 1079.14 595.33 1073.98 595.33 1068.82 595.33 1063.66 595.33 1058.65 595.33 1058.5 595.33 1053.34 595.33 1048.18 595.33 1043.03 595.33 1037.87 595.33 1032.72 595.33 1027.57 595.33 1023.79 595.33 1023.04 595.33 1022.41 595.33 1017.25 595.33 1012.09 595.33 1006.93 595.33 1001.77 595.33 996.62 595.33 991.46 595.33 986.3 595.33 981.14 595.33 975.99 595.33 970.83 595.33 965.67 595.33 960.52 595.33 955.36 595.33 950.2 595.33 945.04 595.33 939.89 595.33 934.73 595.33 929.57 595.33 924.42 595.33 919.26 595.33 914.1 595.33 908.94 595.33 903.78 595.33 898.63 595.33 893.47 595.33 888.31 595.33 883.16 595.33 878 595.33 872.84 595.33 867.68 595.33 862.53 595.33 857.37 595.33 852.21 595.33 847.05 595.33 841.9 595.33 836.74 595.33 831.58 595.33 826.42 595.33 821.27 595.33 816.11 595.33 810.95 595.33 805.8 595.33 800.64 595.33 795.48 595.33 790.32 595.33 785.17 595.33 780.01 595.33 774.85 595.33 769.7 595.33 764.54 595.33 759.38 595.33 754.22 595.33 749.07 595.33 743.91 595.33 738.75 595.33 733.59 595.33 728.44 595.33 723.28 595.33 718.12 595.33 712.96 595.33 707.8 595.33 702.65 595.33 697.49 595.33 692.33 595.33 687.18 595.33 682.02 595.33 676.86 595.33 671.7 595.33 666.55 595.33 661.39 595.33 656.23 595.33 651.08 595.33 645.92 595.33 640.76 595.33 635.61 595.33 630.45 595.33 625.29 595.33 620.13 595.33 614.98 595.33 609.82 595.33 604.66 595.33 599.5 595.33 594.34 595.33 589.19 595.33 584.03 595.33 578.87 595.33 573.72 595.33 568.56 595.33 563.4 595.33 558.24 595.33 553.09 595.33 547.93 595.33 542.77 595.33 537.61 595.33 532.46 595.33 527.3 595.33 522.14 595.33 516.99 595.33 511.83 595.33 506.67 595.33 501.51 595.33 496.36 595.33 491.2 595.33 486.04 595.33 480.88 595.33 475.73 595.33 470.57 595.33 465.41 595.33 460.25 595.33 455.1 595.33 449.94 595.33 444.78 595.33 439.63 595.33 434.47 595.33 429.31 595.33 424.15 595.33 418.99 595.33 413.84 595.33 408.68 595.33 403.52 595.33 398.37 595.33 393.21 595.33 388.95 595.33 388.05 588.87 382.89 551.86 377.74 514.87 372.58 477.86 367.42 440.87 362.27 403.88 357.11 366.88 362.27 366.88 367.42 366.88 372.58 366.88 377.74 366.88 382.89 366.88 388.05 366.88 393.21 366.88 398.37 366.88 403.52 366.88 408.68 366.88 413.84 366.88 418.99 366.88 424.15 366.88 429.31 366.88 434.47 366.88 439.63 366.88 444.78 366.88 449.94 366.88 455.1 366.88 460.25 366.88 465.41 366.88 470.57 366.88 475.73 366.88 480.88 366.88 486.04 366.88 491.2 366.88 496.36 366.88 501.51 366.88 506.67 366.88 511.83 366.88 516.99 366.88 522.14 366.88 527.3 366.88 532.46 366.88 537.61 366.88 542.77 366.88 547.93 366.88 553.09 366.88 558.24 366.88 563.4 366.88 568.56 366.88 573.72 366.88 578.87 366.88 584.03 366.88 589.19 366.88 594.34 366.88 599.5 366.88 604.66 366.88 609.82 366.88 614.98 366.88 620.13 366.88 625.29 366.88 630.45 366.88 635.61 366.88 640.76 366.88 645.92 366.88 651.08 366.88 656.23 366.88 661.39 366.88 666.55 366.88 671.7 366.88 676.86 366.88 682.02 366.88 687.18 366.88 692.33 366.88 697.49 366.88 702.65 366.88 707.8 366.88 712.96 366.88 718.12 366.88 723.28 366.88 728.44 366.88 733.59 366.88 738.75 366.88 743.91 366.88 749.07 366.88 754.22 366.88 759.38 366.88 764.54 366.88 769.7 366.88 774.85 366.88 780.01 366.88 785.17 366.88 790.32 366.88 795.48 366.88 800.64 366.88 805.8 366.88 810.95 366.88 816.11 366.88 821.27 366.88 826.42 366.88 831.58 366.88 836.74 366.88 841.9 366.88 847.05 366.88 852.21 366.88 857.37 366.88 862.53 366.88 867.68 366.88 872.84 366.88 878 366.88 883.16 366.88 888.31 366.88 893.47 366.88 898.63 366.88 903.78 366.88 908.94 366.88 914.1 366.88 919.26 366.88 924.42 366.88 929.57 366.88 934.73 366.88 939.89 366.88 945.04 366.88 950.2 366.88 955.36 366.88 960.52 366.88 965.67 366.88 970.83 366.88 975.99 366.88 981.14 366.88 986.3 366.88 991.46 366.88 996.62 366.88 1001.77 366.88 1006.93 366.88 1012.09 366.88 1017.25 366.88 1022.41 366.88 1023.04 366.88"/><polygon id="_337846384" data-name=" 337846384" class="cls-3" points="413.06 834.08 1629.14 834.08 1606.99 1059.95 433.33 1057.37 413.06 834.08"/><polygon id="_337846192" data-name=" 337846192" class="cls-3" points="451.06 1183.19 717.08 1183.28 734.44 1367.96 1023.04 1431.41 1319.33 1357.69 1339.38 1055.68 1607.77 1051.95 1559.64 1542.51 1024 1681.13 484.5 1539.95 451.06 1183.19"/><polygon id="_337846792" data-name=" 337846792" class="cls-4" points="1024 833.11 1651.34 595.33 1677.38 366.87 1024 608.12 1024 833.11"/><polygon id="_337846480" data-name=" 337846480" class="cls-4" points="1024 366.88 1027.57 366.88 1032.72 366.88 1037.87 366.88 1043.03 366.88 1048.18 366.88 1053.34 366.88 1058.5 366.88 1063.66 366.88 1068.82 366.88 1073.98 366.88 1079.14 366.88 1084.29 366.88 1089.45 366.88 1094.61 366.88 1099.77 366.88 1104.93 366.88 1110.07 366.88 1115.23 366.88 1120.39 366.88 1125.55 366.88 1130.71 366.88 1135.86 366.88 1141.02 366.88 1146.18 366.88 1151.34 366.88 1156.5 366.88 1161.66 366.88 1166.8 366.88 1171.96 366.88 1177.12 366.88 1182.28 366.88 1187.43 366.88 1192.59 366.88 1197.75 366.88 1202.91 366.88 1208.07 366.88 1213.23 366.88 1218.38 366.88 1223.54 366.88 1228.7 366.88 1233.86 366.88 1239.02 366.88 1244.16 366.88 1249.32 366.88 1254.48 366.88 1259.64 366.88 1264.8 366.88 1269.95 366.88 1275.11 366.88 1280.27 366.88 1285.43 366.88 1290.59 366.88 1295.75 366.88 1300.91 366.88 1306.06 366.88 1311.21 366.88 1316.37 366.88 1321.53 366.88 1326.68 366.88 1331.84 366.88 1337 366.88 1342.16 366.88 1347.32 366.88 1352.48 366.88 1357.63 366.88 1362.79 366.88 1367.95 366.88 1373.1 366.88 1378.25 366.88 1383.41 366.88 1388.57 366.88 1393.73 366.88 1398.89 366.88 1404.05 366.88 1409.2 366.88 1414.36 366.88 1419.52 366.88 1424.68 366.88 1429.84 366.88 1435 366.88 1440.15 366.88 1445.3 366.88 1450.46 366.88 1455.62 366.88 1460.77 366.88 1465.93 366.88 1471.09 366.88 1476.25 366.88 1481.41 366.88 1486.57 366.88 1491.72 366.88 1496.88 366.88 1502.04 366.88 1507.18 366.88 1512.34 366.88 1517.5 366.88 1522.66 366.88 1527.82 366.88 1532.98 366.88 1538.14 366.88 1543.3 366.88 1548.45 366.88 1553.61 366.88 1558.77 366.88 1563.93 366.88 1569.09 366.88 1574.25 366.88 1579.39 366.88 1584.55 366.88 1589.71 366.88 1594.87 366.88 1600.02 366.88 1605.18 366.88 1610.34 366.88 1615.5 366.88 1620.66 366.88 1625.82 366.88 1630.97 366.88 1636.13 366.88 1641.29 366.88 1646.45 366.88 1651.59 366.88 1656.75 366.88 1661.91 366.88 1667.07 366.88 1672.23 366.88 1677.38 366.88 1672.23 412.1 1667.07 457.32 1661.91 502.53 1656.75 547.76 1651.59 592.98 1651.34 595.33 1651.34 595.33 1646.45 595.33 1641.29 595.33 1636.13 595.33 1630.97 595.33 1625.82 595.33 1620.66 595.33 1615.5 595.33 1610.34 595.33 1605.18 595.33 1600.02 595.33 1594.87 595.33 1589.71 595.33 1584.55 595.33 1579.39 595.33 1574.25 595.33 1569.09 595.33 1563.93 595.33 1558.77 595.33 1553.61 595.33 1548.45 595.33 1543.3 595.33 1538.14 595.33 1532.98 595.33 1527.82 595.33 1522.66 595.33 1517.5 595.33 1512.34 595.33 1507.18 595.33 1502.04 595.33 1496.88 595.33 1491.72 595.33 1486.57 595.33 1481.41 595.33 1476.25 595.33 1471.09 595.33 1465.93 595.33 1460.77 595.33 1455.62 595.33 1450.46 595.33 1445.3 595.33 1440.15 595.33 1435 595.33 1429.84 595.33 1424.68 595.33 1419.52 595.33 1414.36 595.33 1409.2 595.33 1404.05 595.33 1398.89 595.33 1393.73 595.33 1388.57 595.33 1383.41 595.33 1378.25 595.33 1373.1 595.33 1367.95 595.33 1362.79 595.33 1357.63 595.33 1352.48 595.33 1347.32 595.33 1342.16 595.33 1337 595.33 1331.84 595.33 1326.68 595.33 1321.53 595.33 1316.37 595.33 1311.21 595.33 1306.06 595.33 1300.91 595.33 1295.75 595.33 1290.59 595.33 1285.43 595.33 1280.27 595.33 1275.11 595.33 1269.95 595.33 1264.8 595.33 1259.64 595.33 1254.48 595.33 1249.32 595.33 1244.16 595.33 1239.02 595.33 1233.86 595.33 1228.7 595.33 1223.54 595.33 1218.38 595.33 1213.23 595.33 1208.07 595.33 1202.91 595.33 1197.75 595.33 1192.59 595.33 1187.43 595.33 1182.28 595.33 1177.12 595.33 1171.96 595.33 1166.8 595.33 1161.66 595.33 1156.5 595.33 1151.34 595.33 1146.18 595.33 1141.02 595.33 1135.86 595.33 1130.71 595.33 1125.55 595.33 1120.39 595.33 1115.23 595.33 1110.07 595.33 1104.93 595.33 1099.77 595.33 1094.61 595.33 1089.45 595.33 1084.29 595.33 1079.14 595.33 1073.98 595.33 1068.82 595.33 1063.66 595.33 1058.65 595.33 1058.5 595.33 1053.34 595.33 1048.18 595.33 1043.03 595.33 1037.87 595.33 1032.72 595.33 1027.57 595.33 1024 595.33 1024 366.88"/><polygon id="_337845784" data-name=" 337845784" class="cls-4" points="1024 834.08 1629.14 834.08 1606.99 1059.95 1024 1058.67 1024 834.08"/><polygon id="_337845328" data-name=" 337845328" class="cls-4" points="1024 1431.17 1319.33 1357.69 1339.38 1055.68 1607.77 1051.95 1559.64 1542.51 1024 1681.13 1024 1681.12 1024 1431.17"/></g></g><rect class="cls-5" width="2048" height="2048"/></svg>